HIERARCHY
ROOT Hips
{
 OFFSET 0.000000 0.000000 0.000000
 CHANNELS 6 Xposition Yposition Zposition Yrotation Xrotation Zrotation
 JOINT Chest
 {
  OFFSET 0.000000 10.354800 0.006500
  CHANNELS 3 Yrotation Xrotation Zrotation
  JOINT Chest2
  {
   OFFSET 0.000000 10.435800 -0.013200
   CHANNELS 3 Yrotation Xrotation Zrotation
   JOINT Chest3
   {
    OFFSET 0.000000 10.393700 0.000000
    CHANNELS 3 Yrotation Xrotation Zrotation
    JOINT Chest4
    {
     OFFSET 0.000000 10.383100 0.000000
     CHANNELS 3 Yrotation Xrotation Zrotation
     JOINT Neck
     {
      OFFSET 0.000000 15.694000 0.000000
      CHANNELS 3 Yrotation Xrotation Zrotation
      JOINT Head
      {
       OFFSET 0.000000 9.711000 -0.028000
       CHANNELS 3 Yrotation Xrotation Zrotation
       End Site
       {
        OFFSET 0.000000 18.578700 -0.014800
       }
      }
     }
     JOINT RightCollar
     {
      OFFSET -3.157200 10.367500 0.000000
      CHANNELS 3 Yrotation Xrotation Zrotation
      JOINT RightShoulder
      {
       OFFSET -14.482500 0.000000 0.000000
       CHANNELS 3 Yrotation Xrotation Zrotation
       JOINT RightElbow
       {
        OFFSET 0.000000 -31.707800 0.000000
        CHANNELS 3 Yrotation Xrotation Zrotation
        JOINT RightWrist
        {
         OFFSET 0.000000 -25.659300 0.000000
         CHANNELS 3 Yrotation Xrotation Zrotation
         End Site
         {
          OFFSET 0.000000 -18.994300 0.000000
         }
        }
       }
      }
     }
     JOINT LeftCollar
     {
      OFFSET 3.157200 10.367500 0.000000
      CHANNELS 3 Yrotation Xrotation Zrotation
      JOINT LeftShoulder
      {
       OFFSET 14.482500 0.000000 0.000000
       CHANNELS 3 Yrotation Xrotation Zrotation
       JOINT LeftElbow
       {
        OFFSET 0.000000 -31.707800 0.000000
        CHANNELS 3 Yrotation Xrotation Zrotation
        JOINT LeftWrist
        {
         OFFSET 0.000000 -25.659300 0.000000
         CHANNELS 3 Yrotation Xrotation Zrotation
         End Site
         {
          OFFSET 0.000000 -18.994300 0.000000
         }
        }
       }
      }
     }
    }
   }
  }
 }
 JOINT RightHip
 {
  OFFSET -8.365600 -0.032100 -0.003200
  CHANNELS 3 Yrotation Xrotation Zrotation
  JOINT RightKnee
  {
   OFFSET 0.000000 -43.980000 0.003100
   CHANNELS 3 Yrotation Xrotation Zrotation
   JOINT RightAnkle
   {
    OFFSET 0.000000 -42.882800 0.005200
    CHANNELS 3 Yrotation Xrotation Zrotation
    JOINT RightToe
    {
     OFFSET 0.000000 -4.915500 10.826300
     CHANNELS 3 Yrotation Xrotation Zrotation
     End Site
     {
      OFFSET 0.000000 -1.517500 6.175900
     }
    }
   }
  }
 }
 JOINT LeftHip
 {
  OFFSET 8.365600 -0.032100 -0.003200
  CHANNELS 3 Yrotation Xrotation Zrotation
  JOINT LeftKnee
  {
   OFFSET 0.000000 -43.980000 0.003100
   CHANNELS 3 Yrotation Xrotation Zrotation
   JOINT LeftAnkle
   {
    OFFSET 0.000000 -42.882800 0.005200
    CHANNELS 3 Yrotation Xrotation Zrotation
    JOINT LeftToe
    {
     OFFSET 0.000000 -4.915500 10.826300
     CHANNELS 3 Yrotation Xrotation Zrotation
     End Site
     {
      OFFSET 0.000000 -1.517500 6.175900
     }
    }
   }
  }
 }
}
MOTION
Frames: 6
Frame Time: 0.008333
7.484658 126.514591 48.210226 171.459717 -20.550562 -4.239636 -0.589305 15.238219 3.244032 -0.088687 1.449880 0.314912 -0.152611 2.433154 0.524139 -0.540601 13.558675 2.898698 -1.304398 19.158170 -1.545973 -1.029617 -5.482844 -1.340395 3.802307 5.484133 -5.342218 2.833911 -1.753312 -4.806711 -92.778254 -54.640713 129.883373 -21.774183 -22.713833 -42.775895 -2.858484 6.896127 -0.185673 1.740250 -3.701196 -0.130132 109.298326 -60.676670 -148.282550 24.286269 1.567867 38.557958 7.233023 -61.271056 -1.960113 -91.036612 78.213406 -84.373536 5.423013 4.374884 -16.547777 0.000631 -0.003187 0.000287 -13.496630 -61.726283 1.685640 119.308992 84.374114 113.609890 -11.454857 -22.388261 -0.012673 0.002053 0.001454 0.000932
7.485081 126.515068 48.209614 171.446094 -20.558352 -4.238621 -0.588179 15.244231 3.239170 -0.079436 1.451565 0.318656 -0.161672 2.431794 0.519836 -0.542740 13.564969 2.894745 -1.302926 19.149734 -1.546167 -1.028097 -5.492423 -1.340991 3.806166 5.477659 -5.339599 2.814876 -1.766461 -4.819539 -92.800947 -54.641419 129.878761 -21.735461 -22.679818 -42.753032 -2.871898 6.893273 -0.197765 1.734434 -3.700493 -0.137457 109.327535 -60.690217 -148.287605 24.289649 1.583372 38.557094 7.233461 -61.264343 -1.950774 -91.016890 78.214789 -84.352978 5.426325 4.375919 -16.549981 0.001282 -0.002652 0.000582 -13.460091 -61.718726 1.689370 119.381596 84.376127 113.678614 -11.510174 -22.394728 -0.019021 -0.002711 0.000144 -0.001231
7.486463 126.515533 48.209543 171.424180 -20.565285 -4.238830 -0.576964 15.248965 3.240027 -0.079973 1.450122 0.317632 -0.158764 2.433690 0.520455 -0.558747 13.562343 2.884582 -1.297492 19.142082 -1.551358 -1.015620 -5.493985 -1.340079 3.819894 5.478442 -5.332521 2.812114 -1.771843 -4.825866 -92.833374 -54.641038 129.877220 -21.763259 -22.647551 -42.727399 -2.860858 6.895393 -0.198073 1.739028 -3.697249 -0.135347 109.320649 -60.686095 -148.281196 24.298254 1.595459 38.558470 7.237445 -61.259556 -1.933576 -91.000577 78.212754 -84.333443 5.426654 4.374626 -16.551624 0.002744 -0.001959 0.001246 -13.432953 -61.710984 1.706345 119.458048 84.385905 113.754884 -11.563449 -22.394959 -0.009578 -0.005326 0.000667 -0.002418
7.486610 126.515888 48.209357 171.418139 -20.570993 -4.236251 -0.580843 15.252939 3.235524 -0.092321 1.449480 0.312871 -0.147702 2.434967 0.524371 -0.561395 13.563161 2.882006 -1.293282 19.140181 -1.554828 -1.012556 -5.497866 -1.347031 3.820895 5.475546 -5.330643 2.809113 -1.777595 -4.833588 -92.854468 -54.632932 129.872455 -21.772975 -22.631712 -42.725842 -2.854586 6.894773 -0.201334 1.708091 -3.695173 -0.150155 109.330851 -60.686582 -148.279281 24.300170 1.599433 38.568435 7.234958 -61.253867 -1.927840 -90.972149 78.210099 -84.299494 5.391272 4.377441 -16.546701 0.004340 -0.002015 0.001970 -13.407289 -61.704493 1.707638 119.507602 84.396837 113.803918 -11.630625 -22.392451 0.002248 -0.009905 0.001920 -0.004497
7.487455 126.516108 48.209819 171.418413 -20.573435 -4.239117 -0.586485 15.252102 3.237712 -0.092675 1.451339 0.312116 -0.151202 2.435178 0.523913 -0.556868 13.564553 2.880576 -1.291692 19.139579 -1.556147 -1.013852 -5.503522 -1.354019 3.817259 5.473770 -5.328164 2.792403 -1.792925 -4.846206 -92.848410 -54.613619 129.854101 -21.785782 -22.684457 -42.774991 -2.856066 6.892440 -0.204688 1.661907 -3.711088 -0.167328 109.281326 -60.684166 -148.222691 24.281835 1.591782 38.587610 7.217530 -61.253030 -1.923111 -90.960051 78.218291 -84.286970 5.389991 4.382948 -16.547660 0.000642 -0.002778 0.000292 -13.403138 -61.700640 1.704749 119.497379 84.394483 113.787180 -11.524786 -22.406269 -0.021955 -0.000626 0.001299 -0.000284
7.486670 126.516384 48.209493 171.419318 -20.578699 -4.231998 -0.592834 15.252647 3.230221 -0.091125 1.455523 0.311034 -0.151353 2.435473 0.523867 -0.566292 13.566341 2.879352 -1.290462 19.136010 -1.563445 -1.010782 -5.507591 -1.361973 3.825688 5.472675 -5.328825 2.775441 -1.810363 -4.852581 -92.824201 -54.602534 129.829574 -21.786733 -22.721401 -42.812763 -2.859282 6.885429 -0.215806 1.661257 -3.717045 -0.163758 109.265238 -60.688888 -148.196664 24.303581 1.592615 38.567645 7.226800 -61.247522 -1.938948 -90.951275 78.220631 -84.275937 5.373443 4.386295 -16.546864 0.000236 -0.002464 0.000107 -13.379316 -61.695825 1.690184 119.448666 84.397582 113.732254 -11.556441 -22.399302 -0.023962 -0.006248 0.001624 -0.002837
